<svg width="36" height="36" viewBox="0 0 36 36" fill="none" xmlns="http://www.w3.org/2000/svg">
<path d="M13.5 24.75C12.45 24.75 11.5625 24.3875 10.8375 23.6625C10.1125 22.9375 9.75 22.05 9.75 21C9.75 19.95 10.1125 19.0625 10.8375 18.3375C11.5625 17.6125 12.45 17.25 13.5 17.25C14.55 17.25 15.4375 17.6125 16.1625 18.3375C16.8875 19.0625 17.25 19.95 17.25 21C17.25 22.05 16.8875 22.9375 16.1625 23.6625C15.4375 24.3875 14.55 24.75 13.5 24.75ZM7.5 33C6.675 33 5.96875 32.7063 5.38125 32.1188C4.79375 31.5313 4.5 30.825 4.5 30V9C4.5 8.175 4.79375 7.46875 5.38125 6.88125C5.96875 6.29375 6.675 6 7.5 6H9V3H12V6H24V3H27V6H28.5C29.325 6 30.0313 6.29375 30.6188 6.88125C31.2063 7.46875 31.5 8.175 31.5 9V30C31.5 30.825 31.2063 31.5313 30.6188 32.1188C30.0313 32.7063 29.325 33 28.5 33H7.5ZM7.5 30H28.5V15H7.5V30Z" fill="#0F2C54"/>
</svg>
